<svg width="1920" height="450" viewBox="0 0 1920 450" fill="none" xmlns="http://www.w3.org/2000/svg">
<rect y="101.407" width="1920" height="246.913" fill="#F6F6F6"/>
<path d="M826.337 17.6722C670.97 39.9524 603.696 46.7685 447.802 24.1341C293.343 1.70796 137.334 1.70796 0 1.70796V101.407H1920V1.70796C1739.54 -10.7362 1679.86 49.7111 1389.78 25.7095C1099.7 1.70796 981.705 -4.60803 826.337 17.6722Z" fill="#F6F6F6"/>
<path d="M1093.66 432.055C1249.03 409.775 1316.3 402.959 1472.2 425.594C1626.66 448.02 1782.67 448.02 1920 448.02L1920 348.32L1.3177e-05 348.32L2.21935e-07 448.02C180.465 460.464 240.136 400.017 530.217 424.018C820.299 448.02 938.295 454.336 1093.66 432.055Z" fill="#F6F6F6"/>
</svg>
